<svg width="48" height="48" viewBox="0 0 48 48" fill="none" xmlns="http://www.w3.org/2000/svg">
<path fill-rule="evenodd" clip-rule="evenodd" d="M38.3499 19.3855C37.9442 19.3855 34.4894 17.1276 32.9342 16.0457C31.8713 15.3064 31.2819 15.8618 30.6699 16.4386C30.3864 16.7057 30.0981 16.9774 29.7556 17.1272C28.6742 17.6005 27.1859 16.3836 26.9154 16.1131C26.6452 15.8421 25.0484 14 24.102 14C23.1557 14 21.5593 15.8425 21.2887 16.1131C21.0185 16.3836 19.5303 17.6005 18.4488 17.1272C18.1066 16.9775 17.8183 16.7058 17.5349 16.4388C16.9227 15.862 16.333 15.3063 15.2703 16.0457C13.7155 17.1271 10.2602 19.3855 9.85457 19.3855C7.14611 20.4281 5 22.1792 5 26.0295C5 29.8794 8.12062 33 11.9705 33C15.7665 33 17.5135 30.0867 17.8869 29.7125C19.132 28.3225 22.1751 25.2795 22.5297 24.5184C22.8847 23.7581 22.8508 23.1831 22.293 22.5743C21.7347 21.9654 21.2287 20.6926 22.0057 20.2751C22.5011 20.0095 23.4936 19.9535 24.102 19.9535C24.7105 19.9535 25.7029 20.009 26.1984 20.2751C26.9753 20.6922 26.4693 21.9654 25.9115 22.5743C25.3536 23.1827 25.3193 23.7577 25.6744 24.5184C26.0294 25.279 29.0725 28.3221 30.3176 29.7125C30.6905 30.0867 32.4384 33 36.234 33C40.0842 33 43.2045 29.8794 43.2045 26.0295C43.2049 22.1792 41.0587 20.4281 38.3499 19.3855ZM11.9705 31.5072C8.94454 31.5072 6.494 29.0538 6.494 26.0295C6.494 23.0036 8.94495 20.5514 11.9705 20.5514C14.996 20.5514 17.447 23.0036 17.447 26.0295C17.4474 29.0542 14.9964 31.5072 11.9705 31.5072ZM36.2344 31.5072C33.2084 31.5072 30.7575 29.0538 30.7575 26.0295C30.7575 23.0036 33.2084 20.5514 36.2344 20.5514C39.2599 20.5514 41.7113 23.0036 41.7113 26.0295C41.7109 29.0542 39.2599 31.5072 36.2344 31.5072ZM8.51646 26.8355C8.93801 26.9024 14.3337 22.1694 12.1349 22.4061C9.93619 22.6428 8.0945 26.7681 8.51646 26.8355ZM32.7799 26.8355C33.2015 26.9024 38.5976 22.1694 36.3984 22.4061C34.1988 22.6424 32.358 26.7681 32.7799 26.8355Z" fill="#B9D662"/>
</svg>